<?xml version="1.0" standalone="no"?>
<!DOCTYPE svg PUBLIC "-//W3C//DTD SVG 20010904//EN"
 "http://www.w3.org/TR/2001/REC-SVG-20010904/DTD/svg10.dtd">
<svg version="1.0" xmlns="http://www.w3.org/2000/svg"
 width="684.000000pt" height="684.000000pt" viewBox="0 0 684.000000 684.000000"
 preserveAspectRatio="xMidYMid meet">
<metadata>
Created by potrace 1.11, written by Peter Selinger 2001-2013
</metadata>
<g transform="translate(0.000000,684.000000) scale(0.100000,-0.100000)"
fill="#000000" stroke="none">
<path d="M2715 6459 c-75 -18 -218 -95 -282 -154 -81 -73 -104 -70 -118 18 -8
51 -28 56 -81 18 -65 -45 -94 -39 -94 19 0 37 -20 29 -90 -36 -53 -50 -78 -84
-102 -135 -17 -37 -37 -70 -45 -73 -7 -3 -41 19 -74 49 -34 30 -69 55 -78 55
-31 0 -60 -30 -67 -68 -3 -20 -15 -73 -26 -116 -14 -54 -18 -94 -14 -125 6
-41 3 -48 -26 -78 l-32 -33 11 -98 c12 -103 73 -308 105 -354 23 -33 23 -47
-2 -143 -11 -43 -20 -91 -20 -106 0 -30 -23 -49 -60 -49 -25 0 -35 24 -51 117
-16 92 -100 351 -144 443 -52 107 -121 200 -148 200 -12 0 -37 9 -56 21 -28
17 -36 18 -46 7 -22 -23 -47 -150 -53 -259 -5 -115 8 -180 54 -271 13 -26 24
-58 24 -71 0 -31 -25 -54 -42 -39 -15 11 -119 42 -160 48 -45 5 -63 -40 -63
-156 1 -145 29 -228 96 -291 32 -30 39 -43 39 -75 0 -22 9 -59 21 -83 27 -62
194 -224 304 -298 102 -68 118 -84 109 -107 -10 -25 -39 -19 -76 15 -42 39
-117 90 -238 162 -92 54 -168 81 -196 70 -16 -6 -74 15 -74 27 0 4 -33 -1 -72
-12 -51 -14 -81 -28 -99 -48 -61 -64 -40 -171 42 -227 129 -88 285 -161 413
-194 104 -26 166 -54 166 -73 0 -9 4 -16 9 -16 16 0 41 43 41 71 0 40 58 146
96 175 18 15 31 31 27 37 -3 5 -1 7 4 4 14 -9 74 13 67 24 -3 5 3 6 12 2 12
-4 15 -3 10 5 -4 8 -2 10 8 6 35 -13 185 177 171 216 -4 8 -3 11 1 8 3 -4 25
21 48 55 27 41 60 75 98 99 31 21 85 70 120 109 34 40 113 124 174 188 102
106 198 214 164 184 -18 -16 -72 -17 -88 -1 -18 18 -15 66 6 76 21 12 64 5 74
-11 4 -6 8 -20 8 -29 0 -52 49 22 84 127 22 63 15 102 -28 158 -19 25 -31 49
-27 54 18 27 147 106 212 129 84 30 167 70 251 121 42 25 63 46 78 76 11 23
31 60 45 82 34 55 32 77 -10 99 -55 30 -56 75 -1 111 13 9 36 34 51 55 37 53
25 68 -52 67 -32 0 -58 4 -60 10 -2 6 -10 19 -18 29 -14 18 -15 18 -31 -4
l-16 -24 -27 32 -27 32 -62 -31 c-72 -36 -66 -35 -86 -15 -30 30 -20 72 34
134 28 32 50 60 50 64 0 8 -15 6 -65 -5z m-357 -721 c32 -32 8 -60 -108 -132
-67 -41 -76 -44 -95 -32 -39 26 -24 48 73 114 97 65 110 70 130 50z m-470
-170 c30 -30 6 -149 -34 -166 -59 -28 -104 -12 -104 35 0 80 97 172 138 131z
m-855 -345 c-7 -2 -19 -2 -25 0 -7 3 -2 5 12 5 14 0 19 -2 13 -5z m965 -59 c6
-38 -128 -214 -162 -214 -18 0 -27 25 -19 48 14 36 84 131 120 161 41 34 56
35 61 5z m-468 -281 c34 -54 40 -103 12 -103 -9 0 -34 11 -53 25 -20 13 -40
21 -43 17 -4 -3 -4 1 -1 10 4 9 2 19 -4 23 -18 11 -12 43 11 59 34 24 46 20
78 -31z m297 -84 c-7 -51 -42 -91 -77 -87 -44 5 -38 38 16 85 27 23 53 43 58
43 5 0 6 -18 3 -41z m-301 -53 c37 -32 39 -37 40 -94 0 -55 -1 -60 -17 -51
-10 5 -21 14 -24 19 -4 6 -10 8 -15 5 -5 -3 -12 0 -16 6 -4 8 -3 9 4 5 22 -13
12 6 -23 50 -37 45 -42 63 -23 82 19 19 32 15 74 -22z m152 -75 c3 -32 -23
-71 -48 -71 -27 0 -46 41 -31 68 8 15 8 21 -2 25 -6 2 9 4 34 3 41 0 45 -2 47
-25z m282 -5 c0 -2 -8 -10 -17 -17 -16 -13 -17 -12 -4 4 13 16 21 21 21 13z
m-717 -43 c32 -16 107 -90 107 -105 0 -16 -52 1 -90 30 -41 31 -90 83 -90 95
0 10 32 1 73 -20z m287 -214 c17 -32 5 -49 -35 -49 -32 0 -35 3 -35 28 0 16 3
32 7 35 14 15 53 6 63 -14z"/>
<path d="M4168 6395 c-3 -3 -3 -25 -1 -49 4 -35 1 -47 -20 -71 -26 -31 -64
-37 -142 -22 -50 10 -74 -6 -84 -53 -4 -24 -13 -36 -26 -38 -37 -7 -36 -19 2
-48 31 -24 51 -30 108 -34 l70 -5 0 -35 0 -35 -70 -5 c-81 -6 -95 -12 -95 -45
0 -101 170 -257 323 -295 63 -16 97 -56 95 -112 -1 -37 3 -44 56 -90 31 -28
63 -63 71 -78 13 -25 21 -28 76 -32 68 -5 89 -21 89 -70 0 -31 -9 -36 -89 -58
l-43 -11 20 -22 c11 -12 33 -49 50 -82 35 -69 63 -98 146 -146 32 -19 67 -48
78 -65 11 -19 30 -34 46 -37 15 -3 52 -24 82 -47 86 -64 101 -40 46 75 -38 78
-44 113 -24 133 19 19 35 14 77 -24 66 -59 85 -110 91 -253 l6 -124 37 -33
c43 -40 57 -42 57 -11 0 41 38 80 166 169 135 94 170 106 197 67 21 -29 11
-52 -42 -112 -26 -29 -89 -101 -140 -161 l-93 -109 53 -53 c42 -43 70 -87 129
-207 l75 -152 40 1 c28 1 66 17 129 52 49 28 106 54 128 57 43 8 59 28 51 68
-3 16 2 45 12 67 22 49 14 62 -58 87 -68 24 -195 23 -257 -2 -69 -27 -118 -31
-127 -10 -3 10 -2 25 4 34 13 23 108 68 173 81 80 18 143 53 205 116 97 99
159 261 121 319 -14 21 -24 25 -70 25 -128 0 -205 34 -192 85 15 60 42 123 63
146 34 37 41 93 16 127 -11 15 -26 44 -34 65 -21 58 -35 65 -65 32 -23 -25
-29 -27 -79 -20 -78 9 -112 -10 -169 -96 -39 -59 -50 -69 -75 -69 -45 0 -56
22 -43 81 18 74 15 266 -3 320 -16 46 -25 58 -165 236 -117 148 -128 165 -142
220 -6 26 -16 52 -20 58 -5 5 -40 12 -79 16 -59 5 -75 11 -100 35 -16 16 -36
49 -43 74 -13 44 -14 45 -57 48 -24 1 -50 -2 -58 -7 -8 -5 -20 -40 -26 -78
-11 -67 -12 -68 -44 -71 -40 -4 -56 9 -86 67 -13 25 -43 69 -67 97 -23 27 -55
66 -69 84 l-26 34 -18 -37 c-22 -46 -37 -47 -64 -3 -25 40 -64 59 -83 41z
m170 -757 c7 -7 12 -26 12 -42 l0 -31 -15 29 c-8 15 -12 33 -8 39 3 5 2 7 -3
4 -6 -3 -16 -2 -24 4 -12 7 -11 9 6 9 11 0 25 -5 32 -12z m810 -250 c15 -15
16 -122 2 -149 -13 -23 -55 -25 -64 -3 -8 21 -8 149 1 157 11 11 48 8 61 -5z
m149 -414 c-5 -70 -16 -89 -57 -98 -41 -10 -54 5 -46 58 9 57 47 106 83 106
26 0 26 -1 20 -66z"/>
<path d="M2930 5141 c-30 -16 -100 -41 -155 -55 -55 -15 -118 -37 -140 -50
-22 -13 -62 -27 -89 -30 -75 -10 -156 -73 -221 -171 -20 -30 -54 -68 -74 -85
-43 -33 -132 -80 -153 -80 -8 0 -37 -33 -65 -72 -28 -40 -88 -114 -134 -163
-46 -50 -104 -115 -128 -145 -73 -90 -186 -197 -224 -213 -41 -18 -62 -52 -71
-121 -3 -27 -17 -84 -31 -128 -27 -86 -31 -132 -14 -175 l11 -28 14 46 c9 31
30 63 63 96 26 27 56 64 66 83 33 65 67 101 118 125 71 32 117 80 202 209 40
61 85 122 100 136 15 14 51 57 81 95 76 100 86 110 147 152 91 63 277 225 270
236 -3 6 -1 7 5 3 7 -4 32 7 56 24 51 35 116 64 166 75 24 5 63 34 125 93 49
46 107 96 128 110 38 25 46 55 17 59 -8 1 -40 -11 -70 -26z m10 -44 c0 -2 -10
-12 -22 -23 l-23 -19 19 23 c18 21 26 27 26 19z"/>
<path d="M3405 5023 c-10 -3 -58 -31 -105 -63 -142 -96 -228 -130 -329 -130
-100 -1 -130 -24 -397 -314 -60 -65 -126 -105 -171 -106 -29 0 -64 34 -57 54
3 8 43 43 87 77 45 34 81 66 79 71 -1 5 2 7 7 4 19 -12 61 13 61 36 0 40 37
86 95 119 31 17 55 33 53 34 -2 2 -29 -3 -61 -10 -68 -16 -109 -49 -207 -167
-64 -77 -113 -119 -180 -153 -19 -10 -71 -55 -116 -101 -73 -74 -82 -88 -93
-141 -19 -85 -84 -253 -126 -324 -20 -34 -34 -64 -31 -67 3 -2 18 1 33 7 33
14 70 64 84 115 11 40 47 70 73 60 28 -11 17 -48 -36 -119 -72 -96 -124 -144
-186 -172 -83 -39 -141 -134 -128 -214 8 -47 -17 -112 -63 -164 -74 -85 -121
-244 -121 -410 0 -188 26 -275 103 -341 50 -43 93 -108 106 -160 7 -26 20 -63
31 -83 33 -63 158 -171 199 -171 6 0 6 11 1 29 -11 38 9 66 58 81 20 7 41 16
47 21 5 5 28 9 51 9 25 0 44 5 46 12 9 27 -1 359 -12 412 -6 30 -12 64 -13 75
-1 12 -4 21 -8 21 -10 0 9 77 31 126 20 46 45 150 55 234 4 30 13 70 21 89 8
18 11 38 7 45 -3 6 -2 8 2 3 5 -4 19 3 32 15 21 19 27 20 69 11 30 -7 58 -8
78 -2 80 24 131 11 236 -60 59 -40 92 -39 209 4 76 28 161 70 161 78 0 1 -44
1 -97 -1 -54 -2 -124 1 -157 6 -38 6 -70 6 -92 -1 -66 -20 -89 39 -29 74 19
12 33 24 31 28 -10 15 116 19 201 6 41 -6 58 -4 77 8 23 16 26 15 56 -13 39
-37 71 -43 140 -29 75 16 169 26 164 18 -5 -9 22 -19 50 -19 20 0 25 8 36 60
8 38 10 79 5 112 -10 70 -10 180 0 249 17 120 -28 169 -155 169 -46 1 -85 6
-100 15 -29 17 -173 20 -237 5 -24 -6 -75 -15 -115 -20 -106 -15 -169 -48
-213 -109 -23 -32 -57 -62 -92 -82 l-55 -32 -21 22 c-16 15 -19 25 -12 35 45
60 50 73 50 122 1 41 7 60 31 91 16 21 28 41 27 45 -2 4 4 5 11 2 26 -10 169
74 271 160 55 46 154 135 220 197 66 63 142 132 168 153 27 22 79 78 116 125
65 82 135 137 197 155 31 9 66 -24 107 -102 20 -37 44 -75 54 -84 62 -56 321
-233 401 -274 105 -54 107 -55 202 -135 65 -56 228 -225 310 -324 49 -59 92
-139 114 -214 17 -58 22 -166 7 -175 -4 -3 -19 6 -32 20 -81 87 -219 178 -324
214 -70 24 -67 46 6 42 44 -2 58 1 63 13 17 45 -261 104 -508 108 -90 2 -105
-1 -143 -22 -23 -13 -44 -29 -46 -35 -6 -14 23 -87 32 -82 12 8 16 -78 12
-263 -2 -77 8 -91 45 -66 27 17 28 17 46 -5 10 -12 18 -28 18 -36 0 -21 49
-41 117 -47 68 -6 85 4 98 56 10 37 21 42 90 38 70 -4 83 -11 87 -54 2 -26 7
-32 25 -31 12 0 19 -4 16 -9 -4 -6 3 -8 15 -5 12 3 20 2 19 -2 -3 -12 112 -85
156 -99 20 -7 42 -9 48 -5 7 4 9 3 5 -4 -4 -6 16 -19 51 -32 45 -17 69 -20
113 -15 56 6 57 6 92 -33 20 -22 39 -49 43 -61 3 -12 10 -19 14 -16 5 2 9 -98
10 -222 1 -125 6 -233 10 -241 9 -16 -8 -68 -54 -166 -17 -37 -29 -78 -29
-107 -1 -26 -4 -45 -8 -42 -5 2 -8 -14 -8 -36 0 -22 -4 -51 -9 -65 -7 -18 -6
-27 3 -35 19 -16 42 -4 65 35 23 39 40 43 65 15 16 -18 16 -22 2 -50 -9 -16
-16 -45 -15 -63 0 -30 4 -26 42 49 23 45 59 115 81 156 21 41 69 114 107 161
53 68 70 97 76 134 14 82 8 222 -11 290 -11 34 -16 65 -13 68 11 11 47 -22 72
-68 39 -72 47 -67 19 14 -14 40 -34 109 -44 153 l-19 80 2 -55 c2 -49 0 -55
-20 -58 -17 -3 -24 5 -37 46 -13 38 -14 55 -6 77 16 41 14 124 -3 170 -8 22
-42 94 -76 160 -33 66 -61 124 -61 129 0 18 64 -5 98 -35 46 -40 52 -23 13 32
-31 42 -40 79 -20 79 25 0 51 -24 73 -68 13 -26 36 -57 50 -69 36 -32 40 -61
16 -122 -22 -57 -17 -105 15 -141 8 -9 23 -40 33 -69 l18 -52 22 54 c14 32 33
59 47 67 14 7 31 23 40 36 8 12 42 39 77 60 89 53 148 102 148 124 0 10 -17
38 -37 62 -21 24 -46 55 -55 68 -17 25 -17 24 -17 -38 -1 -34 -7 -78 -15 -96
-13 -31 -49 -66 -69 -66 -5 0 -6 33 -2 73 8 89 -6 135 -80 262 -103 178 -108
190 -102 237 7 52 6 53 -60 101 -53 39 -89 82 -172 210 -47 71 -92 117 -115
117 -20 0 -314 167 -444 252 -88 58 -158 95 -250 130 -156 61 -167 64 -175 44
-12 -31 7 -48 127 -108 130 -65 220 -125 275 -182 19 -19 39 -32 44 -29 6 3 7
2 4 -4 -8 -12 75 -128 102 -143 11 -5 30 -10 43 -10 34 0 50 -18 37 -42 -8
-15 0 -32 49 -96 48 -63 64 -77 88 -79 16 0 34 -2 41 -2 21 -2 36 -44 34 -91
-2 -50 1 -54 117 -163 34 -33 62 -67 62 -76 0 -41 -51 -54 -97 -24 -34 23
-216 241 -305 365 -46 65 -93 118 -136 153 -197 158 -165 141 -344 184 -182
44 -292 82 -324 112 -12 11 -39 25 -60 30 -43 12 -127 91 -181 172 -29 42 -36
47 -70 47 -21 -1 -49 -7 -63 -15 -41 -23 -64 -19 -77 15 -11 31 -13 31 -48 23z
m1452 -540 c15 -9 47 -32 70 -51 23 -19 47 -31 53 -27 6 4 9 3 8 -2 -2 -4 29
-39 68 -78 63 -62 118 -138 97 -134 -4 1 -16 -1 -26 -6 -14 -6 -33 9 -90 67
-70 74 -183 146 -251 164 -35 8 -41 24 -26 69 14 43 51 63 62 34 4 -10 20 -26
35 -36z m-367 -268 c30 -30 52 -55 49 -55 -2 0 -29 25 -59 55 -30 30 -52 55
-49 55 2 0 29 -25 59 -55z m-1526 -615 c36 -13 34 -46 -5 -66 -36 -18 -79 -7
-79 21 0 8 -1 18 -1 23 -2 7 39 32 53 32 4 0 18 -4 32 -10z m363 -96 c-3 -3
-12 -4 -19 -1 -8 3 -5 6 6 6 11 1 17 -2 13 -5z m1731 -307 c15 -12 16 -89 0
-105 -17 -17 -49 -15 -76 4 -29 20 -33 110 -4 117 22 5 63 -3 80 -16z m10
-509 c3 -32 -1 -40 -22 -49 -20 -9 -29 -9 -41 1 -34 28 -5 94 39 88 16 -2 22
-11 24 -40z"/>
<path d="M3855 4951 c22 -38 50 -59 62 -48 11 12 -10 40 -48 62 l-33 19 19
-33z"/>
<path d="M1939 4148 c-17 -24 -47 -74 -65 -113 -54 -108 -73 -132 -161 -196
-92 -67 -123 -101 -158 -169 -17 -33 -33 -51 -54 -58 -16 -6 -32 -8 -35 -5 -3
3 -5 -39 -4 -93 1 -54 -1 -110 -3 -124 -3 -19 0 -25 15 -25 15 0 24 15 42 73
12 40 30 82 41 94 10 11 18 28 18 37 0 25 26 55 75 89 61 41 104 88 131 142
12 25 39 63 60 85 40 42 77 117 99 200 7 28 19 62 27 78 20 40 8 33 -28 -15z"/>
<path d="M1207 3832 c-63 -16 -127 -52 -184 -105 -71 -65 -64 -76 105 -165
108 -56 116 -59 153 -49 35 8 44 7 69 -11 l28 -21 6 23 c3 13 1 48 -4 76 -15
76 -12 152 6 195 14 34 14 40 1 53 -20 19 -113 22 -180 4z"/>
<path d="M1327 3382 c-18 -20 -23 -62 -7 -62 18 0 77 -60 90 -90 14 -35 43
-37 48 -5 1 11 -14 54 -35 95 -41 81 -65 96 -96 62z"/>
<path d="M4255 3320 c-3 -5 7 -13 22 -16 15 -4 45 -16 66 -27 30 -15 40 -17
52 -7 24 20 18 37 -16 49 -39 14 -116 14 -124 1z"/>
<path d="M3402 3243 c4 -36 33 -39 33 -3 0 16 -6 26 -18 28 -15 3 -18 -2 -15
-25z"/>
<path d="M3297 3106 c-32 -33 -126 -190 -156 -259 -2 -5 17 -6 41 -2 l44 7 42
-65 c50 -78 77 -97 137 -97 92 0 135 -39 135 -121 0 -34 -1 -33 35 -15 24 13
31 13 51 -1 33 -21 44 -14 63 42 21 63 61 92 142 101 51 6 64 11 89 41 49 55
42 75 -57 169 -78 74 -90 81 -104 68 -24 -22 -45 -17 -59 15 -15 37 -31 43
-83 31 -23 -5 -64 -12 -90 -16 -35 -4 -64 -17 -110 -50 -74 -53 -134 -83 -163
-84 -20 0 -21 3 -14 36 5 19 30 74 58 122 27 48 52 95 55 105 11 29 -12 19
-56 -27z"/>
<path d="M3948 2968 c5 -7 13 -24 17 -38 18 -60 68 -83 63 -28 -2 24 -12 38
-37 55 -38 25 -60 31 -43 11z"/>
<path d="M2345 2872 c-8 -80 6 -191 35 -282 22 -71 36 -186 45 -380 3 -69 8
-156 11 -195 3 -38 1 -122 -5 -186 -8 -84 -8 -125 0 -148 11 -32 18 -35 99
-46 60 -7 121 -44 225 -134 60 -53 85 -81 85 -98 0 -33 -27 -43 -88 -31 -37 8
-72 8 -119 0 -46 -8 -72 -8 -86 -1 -12 7 -23 7 -29 1 -22 -22 -1 -44 68 -71
85 -33 146 -67 325 -182 75 -49 152 -95 172 -105 27 -13 37 -25 42 -50 3 -18
28 -75 54 -126 27 -51 54 -111 60 -134 24 -89 77 -135 200 -174 70 -22 171
-26 204 -8 12 6 49 34 82 61 33 28 84 61 113 74 28 12 52 25 52 28 0 17 -37
75 -68 107 -33 35 -34 39 -22 67 18 43 79 95 136 116 96 35 170 73 268 138 54
37 125 76 158 88 l59 22 -73 24 c-52 17 -95 24 -150 24 -163 -1 -257 75 -180
146 42 39 89 59 182 78 104 21 217 73 258 119 28 32 52 103 52 159 0 12 10 56
21 97 16 58 22 124 28 286 8 199 10 215 35 267 33 70 33 79 -2 118 -32 36 -55
32 -50 -8 3 -29 -20 -50 -45 -40 -9 3 -23 22 -31 42 -26 61 -46 40 -48 -50 0
-33 6 -55 21 -76 34 -45 38 -91 12 -133 -26 -42 -76 -86 -98 -86 -9 0 -42 27
-74 60 -75 78 -104 90 -200 83 -89 -6 -147 7 -192 46 -53 46 -77 55 -177 61
-58 4 -108 12 -129 23 -21 11 -39 14 -50 8 -9 -5 -54 -16 -100 -25 -65 -12
-98 -25 -146 -56 -71 -46 -105 -50 -146 -15 -41 34 -92 42 -135 21 -71 -33
-93 -21 -138 78 l-26 59 34 37 c34 37 73 141 61 160 -3 6 -16 10 -29 10 -13 0
-42 14 -66 31 -23 17 -72 39 -109 49 -36 10 -108 35 -158 54 -81 32 -193 66
-214 66 -4 0 -10 -31 -14 -68z m444 -141 c60 -31 93 -102 59 -128 -20 -16
-143 -24 -157 -10 -6 6 -11 39 -11 74 0 48 4 64 18 72 26 15 49 13 91 -8z m24
-291 c49 -39 44 -133 -7 -146 -35 -8 -61 3 -74 32 -16 33 -15 107 0 122 18 18
52 14 81 -8z m857 -145 c288 -36 437 -85 502 -166 39 -49 61 -145 62 -269 1
-154 -36 -245 -116 -286 -61 -32 -113 -21 -368 78 -30 11 -76 34 -103 49 -26
16 -51 29 -56 29 -5 0 -38 -14 -73 -30 -52 -24 -243 -79 -444 -127 -30 -7 -60
35 -68 98 -6 41 -15 60 -42 87 -18 18 -34 39 -34 44 0 6 13 34 29 62 38 67 61
147 61 212 0 34 6 59 18 73 19 24 370 168 412 170 14 1 113 -10 220 -24z
m-882 -103 c3 -20 0 -23 -20 -20 -15 2 -24 11 -26 26 -3 20 0 23 20 20 15 -2
24 -11 26 -26z m70 -150 c3 -32 2 -33 -30 -30 -29 3 -33 7 -36 36 -3 32 -2 33
30 30 29 -3 33 -7 36 -36z m988 -483 c-1 -12 5 -24 13 -27 10 -3 12 1 8 17 -3
11 -1 21 4 21 5 0 9 -11 9 -25 0 -27 -18 -33 -38 -13 -14 14 -16 48 -4 48 5 0
8 -10 8 -21z"/>
<path d="M3367 2154 c-76 -18 -117 -40 -117 -63 0 -11 19 -40 43 -66 l43 -48
89 17 c106 19 201 20 329 5 51 -7 105 -9 119 -5 31 8 60 56 55 94 -3 23 -10
28 -58 39 -190 44 -390 55 -503 27z"/>
<path d="M2750 2196 c0 -9 7 -16 16 -16 17 0 14 22 -4 28 -7 2 -12 -3 -12 -12z"/>
<path d="M4632 2674 c-16 -11 -22 -25 -22 -52 l0 -37 36 37 c24 23 35 42 31
52 -8 20 -17 20 -45 0z"/>
<path d="M1540 2651 c0 -17 59 -190 75 -222 l17 -31 15 21 c12 17 18 20 29 10
8 -6 14 -21 14 -33 0 -28 34 -82 59 -96 12 -6 21 -9 21 -6 0 12 -63 183 -72
193 -5 6 -16 9 -23 7 -28 -11 -58 20 -91 92 -32 69 -44 87 -44 65z"/>
<path d="M4327 2613 c-10 -9 -9 -61 1 -67 5 -3 19 13 31 34 l22 40 -24 0 c-13
0 -27 -3 -30 -7z"/>
<path d="M2180 2210 c-14 -11 -38 -22 -53 -26 -24 -5 -26 -8 -15 -22 15 -17
98 -72 110 -72 4 0 8 32 8 70 0 77 -7 84 -50 50z"/>
<path d="M4779 2038 c-2 -21 3 -83 6 -86 9 -9 85 51 85 67 0 28 -89 46 -91 19z"/>
<path d="M2265 1938 c4 -13 10 -44 14 -70 8 -54 21 -75 21 -35 0 44 -21 127
-32 127 -6 0 -7 -9 -3 -22z"/>
<path d="M4645 1556 c-21 -36 -26 -55 -23 -98 l3 -53 27 95 c15 52 25 96 23
98 -2 2 -15 -17 -30 -42z"/>
</g>
</svg>
